<?xml version="1.0" encoding="UTF-8" standalone="no"?>
<!DOCTYPE svg PUBLIC "-//W3C//DTD SVG 1.1//EN"
 "http://www.w3.org/Graphics/SVG/1.1/DTD/svg11.dtd">
<!-- Generated by graphviz version 2.43.0 (0)
 -->
<!-- Title: %3 Pages: 1 -->
<svg width="452pt" height="404pt"
 viewBox="0.00 0.00 452.00 404.00" xmlns="http://www.w3.org/2000/svg" xmlns:xlink="http://www.w3.org/1999/xlink">
<g id="graph0" class="graph" transform="scale(1 1) rotate(0) translate(4 400)">
<title>%3</title>
<polygon fill="white" stroke="transparent" points="-4,4 -4,-400 448,-400 448,4 -4,4"/>
<!-- html -->
<g id="node1" class="node">
<title>html</title>
<polygon fill="none" stroke="black" points="162,-396 108,-396 108,-360 162,-360 162,-396"/>
<text text-anchor="middle" x="135" y="-374.3" font-family="Times,serif" font-size="14.00">html</text>
</g>
<!-- head -->
<g id="node2" class="node">
<title>head</title>
<polygon fill="none" stroke="black" points="126,-324 72,-324 72,-288 126,-288 126,-324"/>
<text text-anchor="middle" x="99" y="-302.3" font-family="Times,serif" font-size="14.00">head</text>
</g>
<!-- html&#45;&gt;head -->
<g id="edge1" class="edge">
<title>html&#45;&gt;head</title>
<path fill="none" stroke="black" d="M126.1,-359.7C122,-351.73 117.05,-342.1 112.51,-333.26"/>
<polygon fill="black" stroke="black" points="115.48,-331.4 107.8,-324.1 109.26,-334.6 115.48,-331.4"/>
</g>
<!-- body -->
<g id="node5" class="node">
<title>body</title>
<polygon fill="none" stroke="black" points="220,-324 166,-324 166,-288 220,-288 220,-324"/>
<text text-anchor="middle" x="193" y="-302.3" font-family="Times,serif" font-size="14.00">body</text>
</g>
<!-- html&#45;&gt;body -->
<g id="edge4" class="edge">
<title>html&#45;&gt;body</title>
<path fill="none" stroke="black" d="M149.34,-359.7C156.29,-351.3 164.77,-341.07 172.4,-331.86"/>
<polygon fill="black" stroke="black" points="175.14,-334.04 178.83,-324.1 169.75,-329.57 175.14,-334.04"/>
</g>
<!-- meta -->
<g id="node3" class="node">
<title>meta</title>
<polygon fill="none" stroke="black" points="54,-252 0,-252 0,-216 54,-216 54,-252"/>
<text text-anchor="middle" x="27" y="-230.3" font-family="Times,serif" font-size="14.00">meta</text>
</g>
<!-- head&#45;&gt;meta -->
<g id="edge2" class="edge">
<title>head&#45;&gt;meta</title>
<path fill="none" stroke="black" d="M81.2,-287.7C72.4,-279.14 61.62,-268.66 52,-259.3"/>
<polygon fill="black" stroke="black" points="54.2,-256.57 44.59,-252.1 49.32,-261.58 54.2,-256.57"/>
</g>
<!-- title -->
<g id="node4" class="node">
<title>title</title>
<polygon fill="none" stroke="black" points="126,-252 72,-252 72,-216 126,-216 126,-252"/>
<text text-anchor="middle" x="99" y="-230.3" font-family="Times,serif" font-size="14.00">title</text>
</g>
<!-- head&#45;&gt;title -->
<g id="edge3" class="edge">
<title>head&#45;&gt;title</title>
<path fill="none" stroke="black" d="M99,-287.7C99,-279.98 99,-270.71 99,-262.11"/>
<polygon fill="black" stroke="black" points="102.5,-262.1 99,-252.1 95.5,-262.1 102.5,-262.1"/>
</g>
<!-- div -->
<g id="node6" class="node">
<title>div</title>
<polygon fill="none" stroke="black" points="287.5,-252 144.5,-252 144.5,-216 287.5,-216 287.5,-252"/>
<text text-anchor="start" x="152.5" y="-230.3" font-family="Times,serif" font-size="14.00">div id=&#39;container&#39;</text>
</g>
<!-- body&#45;&gt;div -->
<g id="edge5" class="edge">
<title>body&#45;&gt;div</title>
<path fill="none" stroke="black" d="M198.69,-287.7C201.25,-279.9 204.33,-270.51 207.18,-261.83"/>
<polygon fill="black" stroke="black" points="210.58,-262.7 210.38,-252.1 203.93,-260.51 210.58,-262.7"/>
</g>
<!-- h1 -->
<g id="node7" class="node">
<title>h1</title>
<polygon fill="none" stroke="black" points="200,-180 146,-180 146,-144 200,-144 200,-180"/>
<text text-anchor="middle" x="173" y="-158.3" font-family="Times,serif" font-size="14.00">h1</text>
</g>
<!-- div&#45;&gt;h1 -->
<g id="edge6" class="edge">
<title>div&#45;&gt;h1</title>
<path fill="none" stroke="black" d="M205.37,-215.7C200.37,-207.56 194.31,-197.69 188.79,-188.7"/>
<polygon fill="black" stroke="black" points="191.72,-186.79 183.51,-180.1 185.76,-190.46 191.72,-186.79"/>
</g>
<!-- section -->
<g id="node9" class="node">
<title>section</title>
<polygon fill="none" stroke="black" points="292,-180 224,-180 224,-144 292,-144 292,-180"/>
<text text-anchor="middle" x="258" y="-158.3" font-family="Times,serif" font-size="14.00">section</text>
</g>
<!-- div&#45;&gt;section -->
<g id="edge8" class="edge">
<title>div&#45;&gt;section</title>
<path fill="none" stroke="black" d="M226.38,-215.7C231.26,-207.56 237.19,-197.69 242.58,-188.7"/>
<polygon fill="black" stroke="black" points="245.59,-190.48 247.74,-180.1 239.59,-186.88 245.59,-190.48"/>
</g>
<!-- h1_text -->
<g id="node8" class="node">
<title>h1_text</title>
<polygon fill="none" stroke="black" points="213,-108 119,-108 119,-72 213,-72 213,-108"/>
<text text-anchor="middle" x="166" y="-86.3" font-family="Times,serif" font-size="14.00">&quot;Welcome&quot;</text>
</g>
<!-- h1&#45;&gt;h1_text -->
<g id="edge7" class="edge">
<title>h1&#45;&gt;h1_text</title>
<path fill="none" stroke="black" d="M171.27,-143.7C170.5,-135.98 169.57,-126.71 168.71,-118.11"/>
<polygon fill="black" stroke="black" points="172.19,-117.71 167.71,-108.1 165.22,-118.4 172.19,-117.71"/>
</g>
<!-- p -->
<g id="node10" class="node">
<title>p</title>
<polygon fill="none" stroke="black" points="285,-108 231,-108 231,-72 285,-72 285,-108"/>
<text text-anchor="middle" x="258" y="-86.3" font-family="Times,serif" font-size="14.00">p</text>
</g>
<!-- section&#45;&gt;p -->
<g id="edge9" class="edge">
<title>section&#45;&gt;p</title>
<path fill="none" stroke="black" d="M258,-143.7C258,-135.98 258,-126.71 258,-118.11"/>
<polygon fill="black" stroke="black" points="261.5,-118.1 258,-108.1 254.5,-118.1 261.5,-118.1"/>
</g>
<!-- a -->
<g id="node12" class="node">
<title>a</title>
<polygon fill="none" stroke="black" points="399,-108 345,-108 345,-72 399,-72 399,-108"/>
<text text-anchor="middle" x="372" y="-86.3" font-family="Times,serif" font-size="14.00">a</text>
</g>
<!-- section&#45;&gt;a -->
<g id="edge11" class="edge">
<title>section&#45;&gt;a</title>
<path fill="none" stroke="black" d="M285.89,-143.88C301.02,-134.59 319.88,-123 336.1,-113.04"/>
<polygon fill="black" stroke="black" points="338.1,-115.92 344.79,-107.71 334.44,-109.96 338.1,-115.92"/>
</g>
<!-- p_text -->
<g id="node11" class="node">
<title>p_text</title>
<polygon fill="none" stroke="black" points="323.5,-36 150.5,-36 150.5,0 323.5,0 323.5,-36"/>
<text text-anchor="middle" x="237" y="-14.3" font-family="Times,serif" font-size="14.00">&quot;This is a paragraph.&quot;</text>
</g>
<!-- p&#45;&gt;p_text -->
<g id="edge10" class="edge">
<title>p&#45;&gt;p_text</title>
<path fill="none" stroke="black" d="M252.81,-71.7C250.47,-63.9 247.65,-54.51 245.05,-45.83"/>
<polygon fill="black" stroke="black" points="248.36,-44.68 242.13,-36.1 241.65,-46.69 248.36,-44.68"/>
</g>
<!-- a_text -->
<g id="node13" class="node">
<title>a_text</title>
<polygon fill="none" stroke="black" points="444,-36 342,-36 342,0 444,0 444,-36"/>
<text text-anchor="middle" x="393" y="-14.3" font-family="Times,serif" font-size="14.00">&quot;Click here&quot;</text>
</g>
<!-- a&#45;&gt;a_text -->
<g id="edge12" class="edge">
<title>a&#45;&gt;a_text</title>
<path fill="none" stroke="black" d="M377.19,-71.7C379.53,-63.9 382.35,-54.51 384.95,-45.83"/>
<polygon fill="black" stroke="black" points="388.35,-46.69 387.87,-36.1 381.64,-44.68 388.35,-46.69"/>
</g>
</g>
</svg>
